<?xml version="1.0" encoding="UTF-8"?>
<svg version="1.1" xmlns="http://www.w3.org/2000/svg" width="500" height="500">
<path d="M0 0 C165 0 330 0 500 0 C500 165 500 330 500 500 C335 500 170 500 0 500 C0 335 0 170 0 0 Z " fill="#FEFEFE" transform="translate(0,0)"/>
<path d="M0 0 C1.051875 0.78375 2.10375 1.5675 3.1875 2.375 C7.62260089 6.51442749 11.28998259 11.21141361 15 16 C15.62261719 16.79535156 16.24523437 17.59070313 16.88671875 18.41015625 C31.50256262 38.08406744 37.15914522 63.87812743 34.66015625 88.0859375 C31.18251026 109.0427323 20.64724001 127.90248317 6 143 C5.40058594 143.67289063 4.80117188 144.34578125 4.18359375 145.0390625 C-4.20471472 154.13394555 -15.30815565 161.09092647 -27 165 C-28.08925781 165.41894531 -29.17851562 165.83789062 -30.30078125 166.26953125 C-42.45190985 170.87766417 -53.8651945 172.37469261 -66.875 172.3125 C-68.72871216 172.30404053 -68.72871216 172.30404053 -70.61987305 172.29541016 C-98.37890406 171.92506974 -121.28704971 159.44006842 -140.46875 139.7734375 C-144.13202223 135.759667 -147.17252058 131.63575115 -150 127 C-150.65742188 125.93652344 -151.31484375 124.87304688 -151.9921875 123.77734375 C-162.98193806 105.10825852 -165.35117683 85.24157732 -165 64 C-164.99484375 63.04480469 -164.9896875 62.08960938 -164.984375 61.10546875 C-164.05189338 42.08950421 -152.63378569 21.62046505 -140 8 C-139.23042969 7.15050781 -138.46085937 6.30101562 -137.66796875 5.42578125 C-100.17822089 -34.12317731 -40.90130283 -32.15397405 0 0 Z " fill="#0A090A" transform="translate(315,176)"/>
<path d="M0 0 C19.87551252 0.3486932 39.19969823 13.60823463 53.1875 26.75 C71.31171585 45.86627819 79.40396504 68.98307386 80 95 C66.60900114 95.26585071 53.35317329 94.42828436 40 93.5 C37.85680392 93.35497901 35.71357486 93.21044445 33.5703125 93.06640625 C28.3798119 92.71653322 23.18979938 92.36011895 18 92 C17.79839264 91.311978 17.59678528 90.62395599 17.3890686 89.91508484 C17.12226288 89.01328995 16.85545715 88.11149506 16.58056641 87.18237305 C16.31708405 86.28810104 16.05360168 85.39382904 15.78213501 84.47245789 C13.00033537 75.67872999 7.60028383 69.97058562 0 65 C-0.66 64.67 -1.32 64.34 -2 64 C-2.37890625 61.90209961 -2.37890625 61.90209961 -2.5625 59.15234375 C-2.63726562 58.15396484 -2.71203125 57.15558594 -2.7890625 56.12695312 C-2.85867188 55.07443359 -2.92828125 54.02191406 -3 52.9375 C-3.47284847 44.80028071 -3.47284847 44.80028071 -5.03515625 36.828125 C-6.15056165 32.40262988 -6.42308514 28.35736552 -6.4375 23.8125 C-6.44064209 22.9889502 -6.44378418 22.16540039 -6.44702148 21.31689453 C-6.3119712 14.34449938 -5.18420906 5.18420906 0 0 Z " fill="#00BDC1" transform="translate(267,156)"/>
<path d="M0 0 C12.69284103 -1.26392847 12.69284103 -1.26392847 17.31445312 2.296875 C18.78143929 4.04737445 20.19436361 5.84464769 21.54882812 7.68359375 C25.54242331 12.55637594 31.1630067 14.85285066 37.3578186 15.53904724 C38.34204803 15.62211624 39.32627747 15.70518524 40.34033203 15.79077148 C41.33271881 15.87600571 42.32510559 15.96123993 43.3475647 16.04905701 C44.10491913 16.11150101 44.86227356 16.17394501 45.64257812 16.23828125 C46.33850279 23.1207958 47.03199366 30.00355262 47.72387695 36.88647461 C47.95900754 39.2227927 48.19467366 41.55905695 48.4309082 43.89526367 C50.94983065 68.81289189 50.94983065 68.81289189 51.64257812 79.23828125 C38.90073646 79.70826721 27.81136691 79.11190616 15.64257812 75.23828125 C14.46308594 74.88765625 13.28359375 74.53703125 12.06835938 74.17578125 C-2.74847018 69.39722928 -14.50808453 61.21286347 -25.35742188 50.23828125 C-26.15792969 49.44808594 -26.9584375 48.65789062 -27.78320312 47.84375 C-36.40910429 38.86029853 -47.35742188 24.16667037 -47.35742188 11.23828125 C-33.73296544 4.32691457 -19.84752271 1.46736574 -4.74609375 0.4140625 C-3.16233582 0.29751449 -1.57998997 0.15970073 0 0 Z " fill="#00BDC1" transform="translate(208.357421875,266.76171875)"/>
<path d="M0 0 C20.72172727 0.60240427 41.39939392 1.60159264 62 4 C62.25446592 10.30348431 61.39549638 15.72078551 59.8125 21.8125 C59.58618896 22.69542725 59.35987793 23.57835449 59.12670898 24.48803711 C57.38856624 31.02940218 55.19638844 37.01996997 52 43 C51.56042969 43.89589844 51.12085938 44.79179687 50.66796875 45.71484375 C43.27720035 60.23169738 31.66530105 72.26687715 18 81 C17.13890625 81.58007812 16.2778125 82.16015625 15.390625 82.7578125 C14.60171875 83.16773438 13.8128125 83.57765625 13 84 C10 83 10 83 8.6521759 80.92581177 C8.19695053 80.01330658 7.74172516 79.10080139 7.27270508 78.16064453 C6.49223564 76.61366379 6.49223564 76.61366379 5.69599915 75.03543091 C5.14276474 73.91256683 4.58953033 72.78970276 4.01953125 71.6328125 C3.44667892 70.48714813 2.8738266 69.34148376 2.28361511 68.16110229 C1.07121881 65.7346552 -0.13427662 63.30494219 -1.3347168 60.87255859 C-2.8740123 57.75430812 -4.42731942 54.64330546 -5.98549938 51.53445625 C-7.46941797 48.57042656 -8.94345626 45.60153326 -10.41796875 42.6328125 C-10.97727585 41.51399689 -11.53658295 40.39518127 -12.11283875 39.24246216 C-12.62369522 38.20483734 -13.1345517 37.16721252 -13.66088867 36.09814453 C-14.11372726 35.18404816 -14.56656586 34.26995178 -15.03312683 33.32815552 C-16 31 -16 31 -16 28 C-14.42578125 26.45703125 -14.42578125 26.45703125 -12.3125 24.8125 C-5.90437114 19.36672265 -3.16734376 14.46632077 -1.36328125 6.2265625 C-1.10458252 5.05947754 -0.84588379 3.89239258 -0.5793457 2.68994141 C-0.38816162 1.80226074 -0.19697754 0.91458008 0 0 Z " fill="#FD2172" transform="translate(285,250)"/>
<path d="M0 0 C1.52997654 2.59532017 2.88632816 5.14604852 4.203125 7.84765625 C4.80444244 9.05378822 4.80444244 9.05378822 5.41790771 10.2842865 C6.26979416 11.99782493 7.11684402 13.71377492 7.95947266 15.43188477 C9.22169969 18.00481255 10.49797795 20.57032479 11.77734375 23.13476562 C16.82327587 33.29792306 21.56545422 43.55586127 26 54 C25.29375488 54.52158691 24.58750977 55.04317383 23.85986328 55.58056641 C15.34349569 61.94483167 10.83347807 67.762942 8 78 C-33.8145181 76.02501099 -33.8145181 76.02501099 -54 74 C-53.5717443 67.1247383 -52.75329068 60.83070829 -50.5 54.3125 C-50.23791748 53.54848877 -49.97583496 52.78447754 -49.70581055 51.99731445 C-41.70540418 29.75099356 -26.09080262 11.08761447 -5.2421875 -0.171875 C-3 -1 -3 -1 0 0 Z " fill="#FD2172" transform="translate(211,166)"/>
<path d="M0 0 C8.16887107 4.91785324 13.92043025 11.09811502 16.56640625 20.33203125 C18.50321517 29.42281908 16.95246744 37.3251828 12.69140625 45.51953125 C7.09750531 52.29109555 1.23527544 57.98191532 -7.68359375 59.39453125 C-16.72630963 60.18183238 -24.78276205 59.9540827 -32.28125 54.5078125 C-39.57001423 48.35691132 -45.05236231 41.45190568 -45.921875 31.73046875 C-46.16300276 22.1107401 -44.23980407 15.20217704 -38.18359375 7.64453125 C-27.95936722 -2.9758369 -13.58984466 -6.33595723 0 0 Z " fill="#FBD03A" transform="translate(265.68359375,221.60546875)"/>
<path d="M0 0 C1.53767346 8.98717886 2.48143798 17.897872 3 27 C3.66 27 4.32 27 5 27 C5.50766936 31.16576916 6.00474723 35.33273792 6.5 39.5 C6.64308594 40.67304688 6.78617187 41.84609375 6.93359375 43.0546875 C7.64467172 49.08191981 8.18026954 54.93092562 8 61 C8.62648438 60.97679687 9.25296875 60.95359375 9.8984375 60.9296875 C10.71570313 60.91164062 11.53296875 60.89359375 12.375 60.875 C13.18710938 60.85179687 13.99921875 60.82859375 14.8359375 60.8046875 C17 61 17 61 19 63 C17.47632813 63.00386719 17.47632813 63.00386719 15.921875 63.0078125 C5.47340626 63.22312663 -2.90069424 64.83053396 -11.15234375 71.82421875 C-17.17415621 78.1006533 -20.15569063 85.33673198 -20.5 94 C-20.14558097 102.91764014 -17.03121274 109.77404701 -10.9296875 116.2421875 C-4.3893628 122.19997316 1.38575404 124.13389619 10.1875 124.1875 C11.23292969 124.20167969 12.27835937 124.21585937 13.35546875 124.23046875 C18.01428832 123.93585958 22.44920161 123.00666238 27 122 C36.61741617 140.19331492 45.84293173 158.57218709 55 177 C70.50579655 170.94057574 83.86622045 157.46902335 91.67578125 142.96875 C93 141 93 141 96 140 C90.9738447 157.5013305 72.32079095 172.38345461 57 181 C53.73179637 182.64134304 50.47658461 183.87640816 47 185 C45.68443092 185.44524325 44.36936756 185.89198229 43.0546875 186.33984375 C39.37777688 187.58509654 35.69158816 188.79900332 32 190 C32 189.34 32 188.68 32 188 C28.37 188.33 24.74 188.66 21 189 C20.67 185.7 20.34 182.4 20 179 C19.34 179 18.68 179 18 179 C16.32262359 175.64524719 16.38182104 171.84750556 16.02734375 168.15234375 C15.93997452 167.26648087 15.85260529 166.38061798 15.7625885 165.46791077 C15.57827438 163.58760523 15.39599476 161.70709933 15.21557617 159.82641602 C14.94090057 156.97282831 14.65744537 154.12021117 14.37304688 151.26757812 C14.19477695 149.43755209 14.01702653 147.60747536 13.83984375 145.77734375 C13.71330666 144.51119484 13.71330666 144.51119484 13.58421326 143.21946716 C13.07119487 137.78781815 12.92635697 132.4560924 13 127 C12.01773438 127.10441406 12.01773438 127.10441406 11.015625 127.2109375 C1.8735356 127.75326484 -4.95720798 124.89093125 -12.171875 119.32421875 C-16.32879264 115.4604171 -18.85869867 111.21874946 -21 106 C-21.61875 104.576875 -21.61875 104.576875 -22.25 103.125 C-23.30539209 98.72753296 -23.13241201 94.49584953 -23 90 C-23.72576233 90.00761353 -24.45152466 90.01522705 -25.19927979 90.02307129 C-32.53019594 90.06628858 -39.79457736 89.80898398 -47.109375 89.34375 C-48.20219788 89.27716187 -49.29502075 89.21057373 -50.42095947 89.14196777 C-53.86419278 88.93138793 -57.30708941 88.71578534 -60.75 88.5 C-63.10414612 88.35513446 -65.45831265 88.21060023 -67.8125 88.06640625 C-73.54190792 87.71476223 -79.27104913 87.35900938 -85 87 C-85 86.67 -85 86.34 -85 86 C-71.90654886 84.31052243 -58.82238899 84.99227312 -45.69213867 85.79956055 C-43.4089974 85.9392438 -41.12547475 86.07058567 -38.84179688 86.20117188 C-37.37236671 86.2885743 -35.90296444 86.37644723 -34.43359375 86.46484375 C-32.46990845 86.58267212 -32.46990845 86.58267212 -30.46655273 86.70288086 C-27.56103721 86.95191335 -24.83773434 87.34953696 -22 88 C-21.979375 87.05125 -21.95875 86.1025 -21.9375 85.125 C-20.80131732 77.43631173 -14.95399515 71.47278611 -9.0625 66.875 C-7.71909029 65.90164472 -6.3687764 64.93734801 -5 64 C-5.433125 63.09636719 -5.86625 62.19273437 -6.3125 61.26171875 C-6.869375 60.08222656 -7.42625 58.90273437 -8 57.6875 C-8.556875 56.51574219 -9.11375 55.34398437 -9.6875 54.13671875 C-11 51 -11 51 -11 48 C-10.34 48 -9.68 48 -9 48 C-6.69 52.62 -4.38 57.24 -2 62 C-1.34 62 -0.68 62 0 62 C-0.36351562 60.56333984 -0.36351562 60.56333984 -0.734375 59.09765625 C-2.72915288 51.18188699 -4.6651117 43.257028 -6.49023438 35.30029297 C-7.29255871 31.84443154 -8.14492806 28.42124605 -9.140625 25.015625 C-11.42653345 17.12763105 -12.55083437 10.21661267 -12 2 C-7.79038695 0.15329583 -4.61179928 -0.18085487 0 0 Z " fill="#130D12" transform="translate(241,156)"/>
<path d="M0 0 C13.36310662 0.23444047 29.86083421 7.37240709 40 16 C40 16.66 40 17.32 40 18 C38.96875 18.495 37.9375 18.99 36.875 19.5 C30.85076304 22.99991095 27.31801493 28.10915072 25.3515625 34.75 C23.24793001 42.88327755 23.58313144 51.25700274 23.63964844 59.59985352 C23.67941195 69.3363903 22.61993675 77.19475837 18 86 C15.82483265 83.15851461 14.07174904 80.33789661 12.375 77.1875 C8.90324124 71.29074392 4.12832452 67.06416226 -2 64 C-2.37890625 61.90209961 -2.37890625 61.90209961 -2.5625 59.15234375 C-2.63726562 58.15396484 -2.71203125 57.15558594 -2.7890625 56.12695312 C-2.85867188 55.07443359 -2.92828125 54.02191406 -3 52.9375 C-3.47284847 44.80028071 -3.47284847 44.80028071 -5.03515625 36.828125 C-6.15056165 32.40262988 -6.42308514 28.35736552 -6.4375 23.8125 C-6.44064209 22.9889502 -6.44378418 22.16540039 -6.44702148 21.31689453 C-6.3119712 14.34449938 -5.18420906 5.18420906 0 0 Z " fill="#FBFDFD" transform="translate(267,156)"/>
<path d="M0 0 C12.6327256 -1.2579423 12.6327256 -1.2579423 17.45507812 2.33203125 C19.76757812 4.98828125 19.76757812 4.98828125 21.77148438 7.74609375 C24.31554122 11.13462875 26.8552622 12.46549507 30.64257812 14.23828125 C26.83213835 17.44760887 22.48599409 19.43054973 18.01757812 21.55078125 C17.18307129 21.94885986 16.34856445 22.34693848 15.48876953 22.75708008 C9.77247686 25.4163334 4.03237845 27.55198598 -1.98242188 29.42578125 C-13.58400355 33.10257493 -19.88582385 37.70892884 -26.35742188 48.23828125 C-30.69814113 45.12781933 -33.40990125 41.76319217 -36.29492188 37.36328125 C-36.94243408 36.38331177 -36.94243408 36.38331177 -37.60302734 35.38354492 C-42.17317381 28.26844409 -47.35742188 19.84104808 -47.35742188 11.23828125 C-33.73296544 4.32691457 -19.84752271 1.46736574 -4.74609375 0.4140625 C-3.16233582 0.29751449 -1.57998997 0.15970073 0 0 Z " fill="#FCFDFD" transform="translate(208.357421875,266.76171875)"/>
<path d="M0 0 C13.39099886 -0.26585071 26.64682671 0.57171564 40 1.5 C42.14319608 1.64502099 44.28642514 1.78955555 46.4296875 1.93359375 C51.6201881 2.28346678 56.81020062 2.63988105 62 3 C62.10957031 3.845625 62.21914062 4.69125 62.33203125 5.5625 C63.24752201 12.11235261 64.37843031 17.92272482 67 24 C65.92069214 24.07516846 65.92069214 24.07516846 64.81958008 24.15185547 C43.54309626 25.65396535 23.81685253 27.4157413 4 36 C0.49748925 23.78812099 -0.50116575 12.68227772 0 0 Z " fill="#01BEC2" transform="translate(156,243)"/>
<path d="M0 0 C3.27075883 -0.0580476 6.54138524 -0.09361165 9.8125 -0.125 C10.74126953 -0.14175781 11.67003906 -0.15851563 12.62695312 -0.17578125 C13.51962891 -0.18222656 14.41230469 -0.18867188 15.33203125 -0.1953125 C16.15421143 -0.20578613 16.9763916 -0.21625977 17.82348633 -0.22705078 C20 0 20 0 23 2 C22.6390625 2.71800781 22.278125 3.43601563 21.90625 4.17578125 C18.73022503 11.26008138 17.5262244 17.09411129 17.5625 24.8125 C17.56636719 25.99356323 17.56636719 25.99356323 17.5703125 27.19848633 C17.70189586 32.41083226 18.62189203 36.9770891 20 42 C21.31422653 49.27783939 21.0775605 56.63175248 21 64 C15.72 63.34 10.44 62.68 5 62 C4.44617403 56.98723101 3.89404878 51.97432828 3.34594727 46.9609375 C3.15971844 45.26194035 2.9725721 43.56304347 2.78442383 41.86425781 C1.24138623 27.9234275 -0.25803721 14.0486928 0 0 Z " fill="#01BDC1" transform="translate(244,155)"/>
<path d="M0 0 C1.03979492 1.60375977 1.03979492 1.60375977 1.98046875 3.69140625 C2.33560547 4.46299072 2.69074219 5.2345752 3.05664062 6.02954102 C3.42982422 6.86541748 3.80300781 7.70129395 4.1875 8.5625 C4.99204187 10.31316604 5.79805472 12.06315676 6.60546875 13.8125 C7.00813965 14.69035156 7.41081055 15.56820313 7.82568359 16.47265625 C9.48218866 20.03775822 11.22920967 23.55309927 13 27.0625 C13.31662598 27.69510742 13.63325195 28.32771484 13.95947266 28.97949219 C15.79074922 32.63103012 17.65349401 36.26479298 19.53515625 39.890625 C20.16647461 41.12026978 20.16647461 41.12026978 20.81054688 42.37475586 C21.63034148 43.97102128 22.45818343 45.56318547 23.29492188 47.15063477 C24.2727948 49.0633525 25.14568656 51.02899185 26 53 C25.67 53.99 25.34 54.98 25 56 C22.69384528 57.04691167 20.51663184 57.89744996 18.125 58.6875 C17.48691406 58.91244141 16.84882813 59.13738281 16.19140625 59.36914062 C13.33402021 60.350435 11.04143468 61 8 61 C7.68546875 59.73027344 7.3709375 58.46054687 7.046875 57.15234375 C4.62894982 47.41886427 2.15200258 37.70796403 -0.45556641 28.0234375 C-1.53908786 23.99643043 -2.61596738 19.9677133 -3.6875 15.9375 C-3.90212891 15.13948975 -4.11675781 14.34147949 -4.33789062 13.51928711 C-5.44054257 9.36276487 -6.37935642 5.26266196 -7 1 C-3.375 -1.125 -3.375 -1.125 0 0 Z " fill="#00BABE" transform="translate(268,281)"/>
<path d="M0 0 C19.11032147 -1.1260848 38.78846077 11.21620873 53.44140625 22.2421875 C54.11558594 22.74234375 54.78976562 23.2425 55.484375 23.7578125 C60.97470952 28.1299782 65.17475983 33.71528609 69.44140625 39.2421875 C70.06273437 40.03625 70.6840625 40.8303125 71.32421875 41.6484375 C85.94564611 61.31851914 91.60042009 87.12158766 89.1015625 111.328125 C87.44386744 121.3176338 83.72732363 136.95627012 76.44140625 144.2421875 C75.78140625 144.2421875 75.12140625 144.2421875 74.44140625 144.2421875 C75.47066604 141.6548739 76.51155629 139.0751636 77.58984375 136.5078125 C80.14681936 130.22123552 82.14214623 124.03037732 83.69140625 117.4296875 C83.93576416 116.39086426 83.93576416 116.39086426 84.18505859 115.33105469 C85.23540901 110.654149 85.90799988 106.00550638 86.44140625 101.2421875 C85.20132813 101.26023437 83.96125 101.27828125 82.68359375 101.296875 C76.95045068 101.29463986 71.27712792 100.83938513 65.56640625 100.3671875 C63.27998171 100.1844725 60.99352208 100.00219608 58.70703125 99.8203125 C57.52560547 99.72556641 56.34417969 99.63082031 55.12695312 99.53320312 C48.85847909 99.03823618 42.58745335 98.57820777 36.31640625 98.1171875 C34.5377417 97.98594482 34.5377417 97.98594482 32.72314453 97.85205078 C29.96259163 97.64840008 27.20201304 97.44510613 24.44140625 97.2421875 C24.35052734 98.14819702 24.35052734 98.14819702 24.2578125 99.07250977 C24.17402344 99.87229248 24.09023438 100.6720752 24.00390625 101.49609375 C23.92269531 102.2857251 23.84148437 103.07535645 23.7578125 103.88891602 C22.58633509 112.60177925 17.79806847 118.33463728 11.44140625 124.2421875 C9.95640625 124.7371875 9.95640625 124.7371875 8.44140625 125.2421875 C8.11140625 125.9021875 7.78140625 126.5621875 7.44140625 127.2421875 C7.11140625 126.2521875 6.78140625 125.2621875 6.44140625 124.2421875 C7.116875 123.69691406 7.79234375 123.15164063 8.48828125 122.58984375 C15.58071528 116.59407221 20.46658297 110.7467145 21.44140625 101.2421875 C22.05485547 92.19381153 20.03791968 84.17981843 14.24609375 77.0625 C9.52281369 72.29832574 3.95549358 68.9124663 -2.55859375 67.2421875 C0.88990223 65.11358047 0.88990223 65.11358047 3.30078125 65.67578125 C12.92328565 70.78525156 19.25529401 77.03215765 23.44140625 87.2421875 C24.09818678 90.00849488 24.33363005 92.38611826 24.44140625 95.2421875 C25.16716858 95.23457397 25.89293091 95.22696045 26.64068604 95.21911621 C33.97160219 95.17589892 41.23598361 95.43320352 48.55078125 95.8984375 C49.64360413 95.96502563 50.736427 96.03161377 51.86236572 96.10021973 C55.30559903 96.31079957 58.74849566 96.52640216 62.19140625 96.7421875 C64.54555237 96.88705304 66.8997189 97.03158727 69.25390625 97.17578125 C74.98331417 97.52742527 80.71245538 97.88317812 86.44140625 98.2421875 C86.14687517 95.39914968 85.84654921 92.55691789 85.54296875 89.71484375 C85.46119385 88.9196936 85.37941895 88.12454346 85.29516602 87.30529785 C83.30262876 68.83891587 76.32544414 51.58421425 64.44140625 37.2421875 C63.73113281 36.38109375 63.02085937 35.52 62.2890625 34.6328125 C47.68135512 17.68889884 25.97714695 5.21406481 3.44140625 3.2421875 C-3.22048436 2.79145244 -9.88652809 2.49271961 -16.55859375 2.2421875 C-16.55859375 1.9121875 -16.55859375 1.5821875 -16.55859375 1.2421875 C-11.04182745 0.79703057 -5.50937698 0.52149828 0 0 Z " fill="#0F1112" transform="translate(260.55859375,152.7578125)"/>
<path d="M0 0 C2.93908532 2.93908532 3.34294157 6.57236205 4.3125 10.5 C4.75537659 12.23987234 5.19941439 13.97944945 5.64453125 15.71875 C5.86963379 16.60304687 6.09473633 17.48734375 6.32666016 18.3984375 C7.3314747 22.28070861 8.41341457 26.1399773 9.5 30 C10.11766036 32.21721069 10.73343604 34.4349366 11.34863281 36.65283203 C11.8050195 38.29739786 12.26282194 39.94157114 12.72167969 41.58544922 C13.44826106 44.2004703 14.16290381 46.81850197 14.875 49.4375 C15.10251953 50.24896484 15.33003906 51.06042969 15.56445312 51.89648438 C17.1141692 57.65749239 17.1141692 57.65749239 16 61 C13 60 13 60 11.78625488 58.19396973 C11.3933728 57.40615112 11.00049072 56.61833252 10.59570312 55.80664062 C10.1451355 54.91481079 9.69456787 54.02298096 9.23034668 53.10412598 C8.75214478 52.1313269 8.27394287 51.15852783 7.78125 50.15625 C7.28210083 49.15799194 6.78295166 48.15973389 6.26867676 47.13122559 C5.21161588 45.01173301 4.15946608 42.88978522 3.11181641 40.765625 C1.5175402 37.53553737 -0.09335732 34.31418282 -1.70703125 31.09375 C-2.73277886 29.03175114 -3.75754933 26.96926585 -4.78125 24.90625 C-5.49855286 23.47134216 -5.49855286 23.47134216 -6.23034668 22.00744629 C-8.96999728 16.4313939 -11.17389144 10.94017012 -13 5 C-3.96703297 0.23335488 -3.96703297 0.23335488 0 0 Z " fill="#00B8BC" transform="translate(225,158)"/>
<path d="M0 0 C1.81987698 10.48449985 2.87391435 21.00614719 3.85986328 31.59545898 C4.12679292 34.45671856 4.40088769 37.31723006 4.67578125 40.17773438 C4.84937985 42.01298101 5.02257165 43.84826618 5.1953125 45.68359375 C5.27653351 46.53054306 5.35775452 47.37749237 5.44143677 48.25010681 C5.83501088 52.51824069 6.0892885 56.70765048 6 61 C5.01 61 4.02 61 3 61 C-1.03768679 48.44340586 -4.69785935 35.80160134 -7.95263672 23.02075195 C-8.31653638 21.59420685 -8.68403171 20.16857398 -9.05517578 18.74389648 C-9.57926208 16.72515002 -10.08859909 14.7032443 -10.59375 12.6796875 C-10.88958984 11.51163574 -11.18542969 10.34358398 -11.49023438 9.14013672 C-11.9947042 6.03262195 -11.84805565 4.00411741 -11 1 C-7.32589215 -0.17571451 -3.83070817 -0.07366746 0 0 Z " fill="#FA2170" transform="translate(241,156)"/>
<path d="M0 0 C0.99 0 1.98 0 3 0 C6.10438258 9.64439228 8.66658757 19.34916215 11.0625 29.1875 C11.73778326 31.95259372 12.41609204 34.71691652 13.09765625 37.48046875 C13.25916168 38.13820282 13.42066711 38.79593689 13.58706665 39.47360229 C14.71318614 44.00364945 16.0038899 48.45310844 17.48217773 52.88012695 C18 55 18 55 18 60 C14.04 60.66 10.08 61.32 6 62 C4.36863387 51.29324121 3.1769172 40.58935572 2.14013672 29.8112793 C1.87305208 27.04230511 1.59891908 24.27408729 1.32421875 21.50585938 C1.15062217 19.72399915 0.97743043 17.94209943 0.8046875 16.16015625 C0.72346649 15.34337906 0.64224548 14.52660187 0.55856323 13.68507385 C0.12288276 9.0983316 -0.07915334 4.60741578 0 0 Z " fill="#F8216F" transform="translate(256,283)"/>
<path d="M0 0 C1.2065625 0.0309375 1.2065625 0.0309375 2.4375 0.0625 C2.4065625 1.1865625 2.375625 2.310625 2.34375 3.46875 C2.34375 8.27451101 3.08451153 12.84416741 3.9375 17.5625 C4.08058594 18.38492188 4.22367188 19.20734375 4.37109375 20.0546875 C4.72056912 22.05834627 5.07818156 24.06058298 5.4375 26.0625 C6.4275 26.3925 7.4175 26.7225 8.4375 27.0625 C8.1075 27.7225 7.7775 28.3825 7.4375 29.0625 C4.6796875 29.4375 4.6796875 29.4375 1.4375 29.0625 C-0.6796875 26.4375 -0.6796875 26.4375 -2.4375 23.0625 C-3.03304687 21.94875 -3.62859375 20.835 -4.2421875 19.6875 C-4.67789063 18.82125 -5.11359375 17.955 -5.5625 17.0625 C-5.69527344 17.98933594 -5.82804687 18.91617188 -5.96484375 19.87109375 C-6.14144531 21.06863281 -6.31804687 22.26617187 -6.5 23.5 C-6.76103516 25.29244141 -6.76103516 25.29244141 -7.02734375 27.12109375 C-7.5625 30.0625 -7.5625 30.0625 -8.5625 31.0625 C-10.24234698 31.41382125 -11.93209646 31.71823751 -13.625 32 C-18.34330255 32.8192353 -22.93371742 33.83980271 -27.5625 35.0625 C-27.8925 33.4125 -28.2225 31.7625 -28.5625 30.0625 C-26.5825 30.3925 -24.6025 30.7225 -22.5625 31.0625 C-22.48245518 27.5405279 -22.52244298 24.44268531 -23.5625 21.0625 C-25.2125 21.3925 -26.8625 21.7225 -28.5625 22.0625 C-28.2325 20.7425 -27.9025 19.4225 -27.5625 18.0625 C-26.5725 18.3925 -25.5825 18.7225 -24.5625 19.0625 C-25.2225 15.4325 -25.8825 11.8025 -26.5625 8.0625 C-28.2125 8.0625 -29.8625 8.0625 -31.5625 8.0625 C-31.5625 9.0525 -31.5625 10.0425 -31.5625 11.0625 C-32.2225 11.0625 -32.8825 11.0625 -33.5625 11.0625 C-33.5625 9.4125 -33.5625 7.7625 -33.5625 6.0625 C-29.02548506 4.61065522 -25.38188524 3.82740804 -20.5625 4.0625 C-20.5625 4.7225 -20.5625 5.3825 -20.5625 6.0625 C-21.2225 6.0625 -21.8825 6.0625 -22.5625 6.0625 C-22.41103516 6.71847168 -22.25957031 7.37444336 -22.10351562 8.05029297 C-21.42093149 11.01218305 -20.74167546 13.97482652 -20.0625 16.9375 C-19.82402344 17.97003906 -19.58554688 19.00257813 -19.33984375 20.06640625 C-19.11425781 21.05253906 -18.88867188 22.03867188 -18.65625 23.0546875 C-18.44677734 23.96589355 -18.23730469 24.87709961 -18.02148438 25.81591797 C-17.5625 28.0625 -17.5625 28.0625 -17.5625 30.0625 C-16.2425 29.7325 -14.9225 29.4025 -13.5625 29.0625 C-14.19445215 20.72610998 -14.85703448 12.39299713 -15.5625 4.0625 C-16.5525 3.7325 -17.5425 3.4025 -18.5625 3.0625 C-16.5825 2.7325 -14.6025 2.4025 -12.5625 2.0625 C-11.9025 8.6625 -11.2425 15.2625 -10.5625 22.0625 C-9.9025 17.1125 -9.2425 12.1625 -8.5625 7.0625 C-5.5625 8.0625 -5.5625 8.0625 -4.39453125 10.12890625 C-4.05808594 10.95261719 -3.72164062 11.77632812 -3.375 12.625 C-3.03082031 13.45128906 -2.68664062 14.27757812 -2.33203125 15.12890625 C-2.07808594 15.76699219 -1.82414062 16.40507812 -1.5625 17.0625 C-1.3266604 11.28442976 -1.69466954 6.54925196 -3.5625 1.0625 C-2.5625 0.0625 -2.5625 0.0625 0 0 Z " fill="#171717" transform="translate(215.5625,121.9375)"/>
<path d="M0 0 C3.07469523 1.70251719 5.40613254 3.81226508 7 7 C7.37766377 12.00404498 7.11200434 14.99885156 4 19 C1.47450701 21.81689603 -0.71884281 22.2730238 -4.375 22.5 C-7.81427659 22.3921679 -9.80530532 21.84195396 -12.5 19.6875 C-15.42018052 16.54830594 -15.89788294 14.90203407 -16.375 10.6875 C-15.87765929 5.79698299 -14.42915508 4.42915508 -11 1 C-7.51556578 -0.74221711 -3.80112955 -0.58675154 0 0 Z " fill="#090909" transform="translate(256,239)"/>
<path d="M0 0 C1.4540625 0.0309375 1.4540625 0.0309375 2.9375 0.0625 C1.9475 0.5575 1.9475 0.5575 0.9375 1.0625 C1.1540625 2.36445313 1.370625 3.66640625 1.59375 5.0078125 C1.87524816 6.73433456 2.15648435 8.46089934 2.4375 10.1875 C2.58058594 11.0434375 2.72367187 11.899375 2.87109375 12.78125 C3.59445734 17.25921505 4.11668816 21.50813435 3.9375 26.0625 C4.5975 26.0625 5.2575 26.0625 5.9375 26.0625 C5.9375 26.7225 5.9375 27.3825 5.9375 28.0625 C3.9575 28.3925 1.9775 28.7225 -0.0625 29.0625 C-0.05089844 28.47984375 -0.03929687 27.8971875 -0.02734375 27.296875 C0.0475363 20.49348756 -0.43233554 13.83676793 -1.0625 7.0625 C-1.7225 12.6725 -2.3825 18.2825 -3.0625 24.0625 C-6.0625 23.0625 -6.0625 23.0625 -7.23046875 20.77734375 C-7.56691406 19.86082031 -7.90335937 18.94429688 -8.25 18 C-8.59417969 17.08089844 -8.93835938 16.16179687 -9.29296875 15.21484375 C-9.54691406 14.50457031 -9.80085938 13.79429687 -10.0625 13.0625 C-10.16719338 18.82063575 -9.80266701 24.35264022 -9.0625 30.0625 C-11.0425 30.0625 -13.0225 30.0625 -15.0625 30.0625 C-15.05089844 29.27488281 -15.03929687 28.48726563 -15.02734375 27.67578125 C-14.9616982 19.75142613 -15.33932714 11.95283243 -16.0625 4.0625 C-17.0525 4.0625 -18.0425 4.0625 -19.0625 4.0625 C-19.0625 3.4025 -19.0625 2.7425 -19.0625 2.0625 C-16.375 1.5625 -16.375 1.5625 -13.0625 2.0625 C-9.98105526 5.56983548 -8.12145433 9.90715581 -6.0625 14.0625 C-5.92972656 13.13566406 -5.79695313 12.20882813 -5.66015625 11.25390625 C-5.48355469 10.05636719 -5.30695313 8.85882813 -5.125 7.625 C-4.95097656 6.43003906 -4.77695312 5.23507812 -4.59765625 4.00390625 C-3.8836099 0.07925734 -3.8836099 0.07925734 0 0 Z " fill="#1A1A1A" transform="translate(288.0625,349.9375)"/>
<path d="M0 0 C19.11032147 -1.1260848 38.78846077 11.21620873 53.44140625 22.2421875 C54.11558594 22.74234375 54.78976562 23.2425 55.484375 23.7578125 C60.97470952 28.1299782 65.17475983 33.71528609 69.44140625 39.2421875 C70.06273437 40.03625 70.6840625 40.8303125 71.32421875 41.6484375 C78.80364907 51.71045138 83.30688632 62.60801007 86.37890625 74.6796875 C86.59047363 75.50774902 86.80204102 76.33581055 87.02001953 77.18896484 C88.23655922 82.32949212 88.64144384 86.96240735 88.44140625 92.2421875 C85.44140625 90.2421875 85.44140625 90.2421875 84.81640625 87.625 C84.63078125 86.01238281 84.63078125 86.01238281 84.44140625 84.3671875 C82.00486928 66.69262565 75.90633114 51.07841564 64.44140625 37.2421875 C63.73113281 36.38109375 63.02085937 35.52 62.2890625 34.6328125 C47.68135512 17.68889884 25.97714695 5.21406481 3.44140625 3.2421875 C-3.22048436 2.79145244 -9.88652809 2.49271961 -16.55859375 2.2421875 C-16.55859375 1.9121875 -16.55859375 1.5821875 -16.55859375 1.2421875 C-11.04182745 0.79703057 -5.50937698 0.52149828 0 0 Z " fill="#162222" transform="translate(260.55859375,152.7578125)"/>
<path d="M0 0 C2.28807642 1.71322554 4.38176829 3.41297203 6.5 5.3125 C7.61410281 6.28830931 8.72867922 7.2635782 9.84375 8.23828125 C10.37355469 8.70572754 10.90335938 9.17317383 11.44921875 9.65478516 C13.58032608 11.50339999 15.78169295 13.25763569 18 15 C17.67 16.98 17.34 18.96 17 21 C13.81457877 22.01772483 12.43868701 22.2025207 9.3515625 20.77734375 C-4.28125 11.578125 -4.28125 11.578125 -8 6 C-7.75 2.875 -7.75 2.875 -7 0 C-4.17007822 -1.41496089 -3.0121521 -0.96879611 0 0 Z " fill="#0A1B1B" transform="translate(197,310)"/>
<path d="M0 0 C10.14172185 0.18940397 10.14172185 0.18940397 13.25 3.125 C14.22449297 6.86055639 14.01540293 9.27685593 13 13 C10.7614704 16.15052314 9.53688242 16.87610406 5.75 17.75 C4.8425 17.8325 3.935 17.915 3 18 C2.34 20.97 1.68 23.94 1 27 C1.66 27 2.32 27 3 27 C3 27.66 3 28.32 3 29 C-2.75 29.125 -2.75 29.125 -5 28 C-5 27.34 -5 26.68 -5 26 C-4.34 26 -3.68 26 -3 26 C-2.87625 24.72125 -2.7525 23.4425 -2.625 22.125 C-2.24807302 18.65071657 -1.67602598 15.29002794 -0.9375 11.875 C-0.07881113 7.8041787 0.18045903 4.15055778 0 0 Z " fill="#191919" transform="translate(194,347)"/>
<path d="M0 0 C2.64 0.33 5.28 0.66 8 1 C8 1.66 8 2.32 8 3 C7.34 3 6.68 3 6 3 C5.87153687 3.93066284 5.87153687 3.93066284 5.74047852 4.88012695 C5.3507567 7.69133434 4.9566787 10.50191423 4.5625 13.3125 C4.42779297 14.28896484 4.29308594 15.26542969 4.15429688 16.27148438 C4.02216797 17.20927734 3.89003906 18.14707031 3.75390625 19.11328125 C3.63345947 19.97735596 3.5130127 20.84143066 3.38891602 21.73168945 C3 24 3 24 2 27 C2.66 27 3.32 27 4 27 C4 27.66 4 28.32 4 29 C-5.01470128 29.77416328 -5.01470128 29.77416328 -8.625 26.9375 C-10.36064272 23.22953601 -10.65097682 21.05052242 -10 17 C-7.875 14.0625 -7.875 14.0625 -5 12 C-1.6875 11.6875 -1.6875 11.6875 1 12 C1.33 8.7 1.66 5.4 2 2 C1.34 2 0.68 2 0 2 C0 1.34 0 0.68 0 0 Z " fill="#101010" transform="translate(295,124)"/>
<path d="M0 0 C5.34740414 1.95385921 8.45618143 4.91236287 11 10 C11.38691286 14.64295428 11.47190735 17.0561853 9.375 21.25 C6.1772477 24.95266056 3.57835584 27.50563756 -1.36328125 28.453125 C-6.15735433 28.77321486 -9.23619577 28.34590578 -13 25.25 C-16.36742071 22.04447452 -17.88178199 19.27675452 -18.3125 14.625 C-17.85551955 9.32402683 -16.39035103 6.25470703 -12.4375 2.6875 C-8.30112708 -0.17614279 -4.96101372 -0.50905924 0 0 Z M-14 8 C-15.53214888 11.06429776 -15.22938548 13.6165642 -15 17 C-13.352113 20.62535141 -11.58884581 23.20557709 -8 25 C-4.15426919 25.66786547 -0.62057017 25.87752866 2.8828125 23.98046875 C6.74580784 20.89193866 7.82592849 18.53763167 8.375 13.6875 C7.87765929 8.79698299 6.42915508 7.42915508 3 4 C-3.63435084 0.68282458 -9.2544462 3.01716851 -14 8 Z " fill="#E2E2E2" transform="translate(255,236)"/>
<path d="M0 0 C1.32 0.33 2.64 0.66 4 1 C4.9821994 4.27626375 5.11580914 7.22788119 5.09765625 10.640625 C5.09443359 11.71054687 5.09121094 12.78046875 5.08789062 13.8828125 C5.07951172 14.99398438 5.07113281 16.10515625 5.0625 17.25 C5.05798828 18.37664062 5.05347656 19.50328125 5.04882812 20.6640625 C5.03705397 23.44276217 5.0206084 26.22135409 5 29 C3.02 29 1.04 29 -1 29 C-0.67 28.34 -0.34 27.68 0 27 C0.22858114 24.9625237 0.41024278 22.91959697 0.5625 20.875 C0.64628906 19.77929688 0.73007813 18.68359375 0.81640625 17.5546875 C0.87699219 16.71164062 0.93757812 15.86859375 1 15 C-0.65 15 -2.3 15 -4 15 C-4.144375 16.258125 -4.28875 17.51625 -4.4375 18.8125 C-4.73748686 21.42667123 -5.15813297 23.47439892 -6 26 C-5.34 26 -4.68 26 -4 26 C-4 26.66 -4 27.32 -4 28 C-5.98 28 -7.96 28 -10 28 C-4.7125 6.175 -4.7125 6.175 0 0 Z " fill="#0F0F0F" transform="translate(230,352)"/>
<path d="M0 0 C1.98 0 3.96 0 6 0 C5.67 4.62 5.34 9.24 5 14 C6.65 14 8.3 14 10 14 C10 9.71 10 5.42 10 1 C11.98 1 13.96 1 16 1 C16 1.66 16 2.32 16 3 C15.34 3 14.68 3 14 3 C13.90203125 3.97839844 13.8040625 4.95679687 13.703125 5.96484375 C12.83602043 13.56695885 11.73959903 20.21691777 8 27 C7.67 27.66 7.34 28.32 7 29 C5.125 28.8125 5.125 28.8125 3 28 C1.22206114 24.45706272 0.71779655 21.41426382 0.5859375 17.48046875 C0.54726563 16.45888672 0.50859375 15.43730469 0.46875 14.38476562 C0.4378125 13.32966797 0.406875 12.27457031 0.375 11.1875 C0.33632813 10.11306641 0.29765625 9.03863281 0.2578125 7.93164062 C0.16381387 5.28792912 0.07815427 2.6442195 0 0 Z " fill="#0C0C0C" transform="translate(256,120)"/>
<path d="M0 0 C4.08845863 0.91781724 5.58607691 2.33704523 8.0625 5.6875 C8.78759943 9.55469695 8.40017324 11.12471126 6.375 14.5 C3.76847756 16.96562933 2.64883803 17.77497166 -0.9375 17.6875 C-4.63154642 15.67256559 -5.73093141 14.34365906 -7 10.3125 C-6.90833133 4.99571689 -5.46500322 1.27904331 0 0 Z " fill="#F8F8F8" transform="translate(248.9375,241.3125)"/>
<path d="M0 0 C2.89037506 1.99573516 4.64806772 3.9177063 6.625 6.8125 C7.0375 7.410625 7.45 8.00875 7.875 8.625 C9.35854229 12.95199836 9.50375114 16.84843868 7.64453125 21.00390625 C4.74349279 25.85087205 2.09026515 28.99074495 -3.375 30.8125 C-8.23074006 31.32231092 -12.19945375 31.34482283 -16.6875 29.3125 C-21.03157984 25.2714955 -24.56654089 20.92908967 -25 14.8125 C-24.56654089 8.69591033 -21.03157984 4.3535045 -16.6875 0.3125 C-11.04094331 -2.24443133 -5.80363459 -2.04201958 0 0 Z M-20.1875 6.875 C-22.61459201 10.83499223 -22.76095477 14.25823368 -22.375 18.8125 C-20.10575515 23.09885138 -17.6175888 26.41451503 -13.375 28.8125 C-8.39822138 29.62945863 -4.56027502 29.38318797 0 27.1875 C4.02754294 23.54353258 6.80701587 20.36662275 7.125 14.8125 C6.89952382 10.60092708 5.33904194 8.05427232 2.625 4.8125 C-1.37786685 1.29482913 -4.96995797 0.4585978 -10.3125 0.52734375 C-14.6045991 1.12075897 -17.41927497 3.72495083 -20.1875 6.875 Z " fill="#221D0E" transform="translate(259.375,235.1875)"/>
<path d="M0 0 C0 0.66 0 1.32 0 2 C-0.66 2 -1.32 2 -2 2 C-1.84853516 2.65597168 -1.69707031 3.31194336 -1.54101562 3.98779297 C-0.85843149 6.94968305 -0.17917546 9.91232652 0.5 12.875 C0.73847656 13.90753906 0.97695312 14.94007813 1.22265625 16.00390625 C1.44824219 16.99003906 1.67382812 17.97617188 1.90625 18.9921875 C2.11572266 19.90339355 2.32519531 20.81459961 2.54101562 21.75341797 C3 24 3 24 3 26 C4.32 26.33 5.64 26.66 7 27 C5.06643218 27.69848264 3.12797702 28.38344814 1.1875 29.0625 C0.10855469 29.44535156 -0.97039062 29.82820313 -2.08203125 30.22265625 C-5 31 -5 31 -8 30 C-7.67 28.68 -7.34 27.36 -7 26 C-5.35 26.33 -3.7 26.66 -2 27 C-1.91995518 23.4780279 -1.95994298 20.38018531 -3 17 C-4.65 17.33 -6.3 17.66 -8 18 C-7.67 16.68 -7.34 15.36 -7 14 C-6.01 14.33 -5.02 14.66 -4 15 C-4.66 11.37 -5.32 7.74 -6 4 C-7.65 4 -9.3 4 -11 4 C-11 4.99 -11 5.98 -11 7 C-11.66 7 -12.32 7 -13 7 C-13 5.35 -13 3.7 -13 2 C-8.46298506 0.54815522 -4.81938524 -0.23509196 0 0 Z " fill="#1C1C1C" transform="translate(195,126)"/>
<path d="M0 0 C0.33 1.32 0.66 2.64 1 4 C0.34 4 -0.32 4 -1 4 C-1 3.34 -1 2.68 -1 2 C-2.65 2.33 -4.3 2.66 -6 3 C-5.67 6.63 -5.34 10.26 -5 14 C-4.01 14 -3.02 14 -2 14 C-2 13.34 -2 12.68 -2 12 C-1.34 12 -0.68 12 0 12 C0.33 13.65 0.66 15.3 1 17 C-0.65 16.67 -2.3 16.34 -4 16 C-3.67 17.0725 -3.34 18.145 -3 19.25 C-2 23 -2 23 -2 27 C-0.35 27 1.3 27 3 27 C3 26.01 3 25.02 3 24 C3.66 24 4.32 24 5 24 C5 25.32 5 26.64 5 28 C0.46298506 29.45184478 -3.18061476 30.23509196 -8 30 C-8 29.34 -8 28.68 -8 28 C-7.34 28 -6.68 28 -6 28 C-6.28875 26.77023437 -6.5775 25.54046875 -6.875 24.2734375 C-7.25034117 22.64070339 -7.62532218 21.00788646 -8 19.375 C-8.28617187 18.16263672 -8.28617187 18.16263672 -8.578125 16.92578125 C-9.57925543 12.52795831 -10.2353082 8.54438961 -10 4 C-10.99 3.67 -11.98 3.34 -13 3 C-8.44573816 0.33409063 -5.26053037 -0.31563182 0 0 Z " fill="#1E1E1E" transform="translate(305,347)"/>
<path d="M0 0 C3.63 0.33 7.26 0.66 11 1 C10.7834375 2.33933594 10.566875 3.67867188 10.34375 5.05859375 C10.06214073 6.85150611 9.78091098 8.6444781 9.5 10.4375 C9.28537109 11.75524414 9.28537109 11.75524414 9.06640625 13.09960938 C8.18190998 18.80671625 7.85900173 24.22494572 8 30 C5.69 30 3.38 30 1 30 C1.12117188 29.47535156 1.24234375 28.95070312 1.3671875 28.41015625 C3.18330912 20.01408629 4.06987195 11.52947214 5 3 C4.01 3 3.02 3 2 3 C2 4.65 2 6.3 2 8 C1.34 8 0.68 8 0 8 C0 5.36 0 2.72 0 0 Z " fill="#181818" transform="translate(274,121)"/>
<path d="M0 0 C2.31 0 4.62 0 7 0 C7 0.66 7 1.32 7 2 C6.34 2 5.68 2 5 2 C5.8412696 9.98099191 6.63297043 16.23814777 11 23 C11.75 26.4375 11.75 26.4375 12 29 C9.69 29 7.38 29 5 29 C5 28.34 5 27.68 5 27 C5.66 27 6.32 27 7 27 C6.34 24.03 5.68 21.06 5 18 C4.34 18.33 3.68 18.66 3 19 C2.53286771 21.0916366 2.53286771 21.0916366 2.375 23.5 C2.30023438 24.3146875 2.22546875 25.129375 2.1484375 25.96875 C2.03735374 27.4830298 2.03735374 27.4830298 2 29 C0.02 29 -1.96 29 -4 29 C-4 28.34 -4 27.68 -4 27 C-3.34 26.67 -2.68 26.34 -2 26 C1.60484188 18.26116513 2.71173259 8.13519776 0 0 Z " fill="#0E0E0E" transform="translate(242,120)"/>
<path d="M0 0 C2.31 0 4.62 0 7 0 C6.80664062 0.94359375 6.61328125 1.8871875 6.4140625 2.859375 C4.78639491 10.88490431 3.28052028 18.91012481 2 27 C3.32 27 4.64 27 6 27 C6 25.02 6 23.04 6 21 C6.66 21 7.32 21 8 21 C8 23.64 8 26.28 8 29 C4.37 29 0.74 29 -3 29 C-3.33 28.01 -3.66 27.02 -4 26 C-3.34 26 -2.68 26 -2 26 C-1.855625 24.783125 -1.71125 23.56625 -1.5625 22.3125 C-1.29429744 20.0519356 -0.97235639 17.87804291 -0.46875 15.65625 C0.09546334 12.45904105 0.095275 9.43222472 0.0625 6.1875 C0.05347656 5.02605469 0.04445312 3.86460937 0.03515625 2.66796875 C0.02355469 1.78753906 0.01195312 0.90710938 0 0 Z " fill="#161616" transform="translate(210,350)"/>
<path d="M0 0 C0.33 0 0.66 0 1 0 C4.47110552 20.33076089 1.25258125 37.52202917 -8 56 C-8.66 56.66 -9.32 57.32 -10 58 C-10.66 58 -11.32 58 -12 58 C-10.97074021 55.4126864 -9.92984996 52.8329761 -8.8515625 50.265625 C-6.29458689 43.97904802 -4.29926002 37.78818982 -2.75 31.1875 C-2.58709473 30.49495117 -2.42418945 29.80240234 -2.25634766 29.08886719 C-1.20599724 24.4119615 -0.53340637 19.76331888 0 15 C-2.97 15 -5.94 15 -9 15 C-9 14.67 -9 14.34 -9 14 C-4.545 13.505 -4.545 13.505 0 13 C0 8.71 0 4.42 0 0 Z " fill="#210C14" transform="translate(347,239)"/>
<path d="M0 0 C2.31 0 4.62 0 7 0 C7.33 0.66 7.66 1.32 8 2 C7.34 2 6.68 2 6 2 C6.30818356 3.31352023 6.62167665 4.62579572 6.9375 5.9375 C7.19853516 7.03384766 7.19853516 7.03384766 7.46484375 8.15234375 C7.83887569 9.99969898 7.83887569 9.99969898 9 11 C10.60355101 7.49223216 11.22036864 4.85645121 11 1 C12.65 1 14.3 1 16 1 C15.01 1.495 15.01 1.495 14 2 C13.34848903 4.05175405 13.34848903 4.05175405 12.9375 6.4375 C12.0839895 10.832021 12.0839895 10.832021 11 13 C10.76970044 15.37123246 10.58880058 17.74741943 10.4375 20.125 C10.35371094 21.40632813 10.26992187 22.68765625 10.18359375 24.0078125 C10.12300781 24.99523437 10.06242188 25.98265625 10 27 C10.66 27 11.32 27 12 27 C12 27.66 12 28.32 12 29 C9.36 29 6.72 29 4 29 C4.33 28.34 4.66 27.68 5 27 C5.66 27 6.32 27 7 27 C6.74340689 24.76914933 6.46912686 22.54032877 6.1875 20.3125 C6.03667969 19.07113281 5.88585937 17.82976562 5.73046875 16.55078125 C5.00656442 13.03190938 3.90777387 10.98608084 2 8 C1.8125 4.6875 1.8125 4.6875 2 2 C1.34 2 0.68 2 0 2 C0 1.34 0 0.68 0 0 Z " fill="#141414" transform="translate(238,352)"/>
<path d="M0 0 C6.47302729 0.66316093 11.70335936 7.42876102 15.796875 12.01171875 C17.1875 13.8125 17.1875 13.8125 19 17 C18.61328125 19.19921875 18.61328125 19.19921875 18 21 C14.41209425 20.70100785 13.21833224 20.23013399 10.6875 17.5625 C9 15 9 15 9 13 C8.34 13 7.68 13 7 13 C5.30859375 11.390625 5.30859375 11.390625 3.4375 9.25 C2.81746094 8.55390625 2.19742187 7.8578125 1.55859375 7.140625 C0.00890786 5.01223436 -0.67820849 3.59691398 -1 1 C-0.67 0.67 -0.34 0.34 0 0 Z " fill="#EDEDED" transform="translate(303,180)"/>
<path d="M0 0 C2.6875 -0.5 2.6875 -0.5 6 0 C9.30104338 3.6767719 11.40440004 8.35825467 13 13 C12.01 13 11.02 13 10 13 C9.67 12.34 9.34 11.68 9 11 C8.89530662 16.75813575 9.25983299 22.29014022 10 28 C8.02 28 6.04 28 4 28 C4.01160156 27.21238281 4.02320313 26.42476563 4.03515625 25.61328125 C4.1008018 17.68892613 3.72317286 9.89033243 3 2 C2.01 2 1.02 2 0 2 C0 1.34 0 0.68 0 0 Z " fill="#0D0D0D" transform="translate(269,352)"/>
<path d="M0 0 C4.62573558 2.15023423 8.30335662 5.24741282 12.25 8.4375 C12.99507812 9.02337891 13.74015625 9.60925781 14.5078125 10.21289062 C15.21164063 10.78072266 15.91546875 11.34855469 16.640625 11.93359375 C17.28547852 12.44978271 17.93033203 12.96597168 18.59472656 13.49780273 C20 15 20 15 20 18 C15.10164621 18.6134387 12.24358216 16.57617991 8.4375 13.8125 C7.87353516 13.42513672 7.30957031 13.03777344 6.72851562 12.63867188 C3.1926101 10.13665685 0.54150325 7.49845068 -2 4 C-1.34 2.68 -0.68 1.36 0 0 Z " fill="#F3F3F3" transform="translate(193,311)"/>
<path d="M0 0 C2.30509763 0.14008607 4.61059742 0.27118463 6.91625977 0.40161133 C8.39220254 0.48897448 9.86811536 0.57684549 11.34399414 0.6652832 C12.02830002 0.70386948 12.7126059 0.74245575 13.41764832 0.7822113 C16.35319029 0.96688532 18.77436093 1.26446797 21.58227539 2.20043945 C21.58227539 2.86043945 21.58227539 3.52043945 21.58227539 4.20043945 C13.88260551 4.28997807 6.2539658 4.03043536 -1.42944336 3.54418945 C-2.52368118 3.47760132 -3.61791901 3.41101318 -4.74531555 3.34240723 C-8.19881849 3.13153835 -11.65201599 2.91606902 -15.10522461 2.70043945 C-17.46392981 2.55560241 -19.82265363 2.41106832 -22.18139648 2.2668457 C-27.92705898 1.91487635 -33.67247873 1.55914187 -39.41772461 1.20043945 C-39.41772461 0.87043945 -39.41772461 0.54043945 -39.41772461 0.20043945 C-26.28916185 -1.49356865 -13.16593967 -0.8050857 0 0 Z " fill="#14141B" transform="translate(195.417724609375,241.799560546875)"/>
<path d="M0 0 C4.87788144 0.11876581 7.6924736 2.93725175 11.0625 6.125 C11.57876953 6.58648437 12.09503906 7.04796875 12.62695312 7.5234375 C16.35207294 10.97807091 18.76719336 14.42652166 21 19 C20.72093023 23.27906977 20.72093023 23.27906977 19 25 C16.21484375 25.375 16.21484375 25.375 13 25 C10.69140625 22.875 10.69140625 22.875 8.5625 20 C5.27769815 15.66673847 1.90559348 11.65175506 -1.8828125 7.75390625 C-3 6 -3 6 -2.8046875 3.90234375 C-2 2 -2 2 0 0 Z M0 2 C-0.80918152 3.80498676 -0.80918152 3.80498676 -1 6 C0.37733883 7.94647569 0.37733883 7.94647569 2.375 9.625 C5.93772894 12.87545788 5.93772894 12.87545788 7 15 C7.66 15 8.32 15 9 15 C9.268125 15.5775 9.53625 16.155 9.8125 16.75 C11.01719859 19.0325868 12.40798115 20.9737942 14 23 C15.65 22.67 17.3 22.34 19 22 C18.15995203 14.28808419 11.19767496 8.78793762 5.625 3.875 C3.13077859 1.7093809 3.13077859 1.7093809 0 2 Z " fill="#071819" transform="translate(303,178)"/>
<path d="M0 0 C1.65 0 3.3 0 5 0 C4.95359375 1.68609375 4.95359375 1.68609375 4.90625 3.40625 C4.90625 8.21201101 5.64701153 12.78166741 6.5 17.5 C6.64308594 18.32242188 6.78617188 19.14484375 6.93359375 19.9921875 C7.28306912 21.99584627 7.64068156 23.99808298 8 26 C8.99 26.33 9.98 26.66 11 27 C10.67 27.66 10.34 28.32 10 29 C8.02 29 6.04 29 4 29 C0 22.25 0 22.25 0 20 C0.99 20 1.98 20 3 20 C2.67 19.34 2.34 18.68 2 18 C1.60635203 15.52030514 1.25366504 13.05200694 0.9375 10.5625 C0.84662109 9.88123047 0.75574219 9.19996094 0.66210938 8.49804688 C0.28990174 5.64072357 0 2.88474282 0 0 Z " fill="#121212" transform="translate(213,122)"/>
<path d="M0 0 C0.33 0 0.66 0 1 0 C1.41859743 6.06966268 1.14344799 9.20232338 -3 14 C-7.27855228 17.87107111 -10.90476241 18.72593832 -16.51953125 18.5390625 C-20.67893926 17.63512816 -23.2166718 15.09668303 -26 12 C-25.67 10.35 -25.34 8.7 -25 7 C-24.1028125 8.175625 -24.1028125 8.175625 -23.1875 9.375 C-20.98950103 12.01259877 -19.39243716 13.77574982 -15.9140625 14.3359375 C-11.94961528 14.40359018 -9.61126239 14.35878444 -6.125 12.3125 C-2.59371047 8.46962609 -0.74142047 5.18994328 0 0 Z " fill="#DADADA" transform="translate(265,246)"/>
<path d="M0 0 C10.31449993 -0.16352394 20.52381261 0.35062399 30.8125 1 C32.391254 1.09671471 33.97002999 1.19307105 35.54882812 1.2890625 C39.36615082 1.52192371 43.18314569 1.75958837 47 2 C46.67 2.66 46.34 3.32 46 4 C30.59519765 4.36678101 15.34946421 3.23346838 0 2 C0 1.34 0 0.68 0 0 Z " fill="#051315" transform="translate(301,249)"/>
<path d="M0 0 C0.33 0 0.66 0 1 0 C1 3.63 1 7.26 1 11 C-0.65 11.33 -2.3 11.66 -4 12 C-4.144375 13.258125 -4.28875 14.51625 -4.4375 15.8125 C-4.73748686 18.42667123 -5.15813297 20.47439892 -6 23 C-5.34 23 -4.68 23 -4 23 C-4 23.66 -4 24.32 -4 25 C-5.98 25 -7.96 25 -10 25 C-9.54901762 23.06077578 -9.08894441 21.12366406 -8.625 19.1875 C-8.24214844 17.56908203 -8.24214844 17.56908203 -7.8515625 15.91796875 C-7 13 -7 13 -5 10 C-4.34 10 -3.68 10 -3 10 C-2.814375 8.3603125 -2.814375 8.3603125 -2.625 6.6875 C-2 3 -2 3 0 0 Z " fill="#414141" transform="translate(230,355)"/>
<path d="M0 0 C9.15446534 3.28206716 14.45246308 10.07626937 19.0390625 18.3515625 C20.12649889 21.63278362 19.74584729 23.74145873 18.9375 27.0625 C17.54616887 24.49388869 16.63979946 22.12239302 15.75 19.3125 C13.07297289 12.19584873 8.44334875 7.55063055 1.6875 4.1875 C0.44226563 3.63449219 0.44226563 3.63449219 -0.828125 3.0703125 C-3.0625 2.0625 -3.0625 2.0625 -6.0625 0.0625 C-3.50145863 -1.21802069 -2.70746474 -0.80698684 0 0 Z " fill="#1E1D12" transform="translate(264.0625,218.9375)"/>
<path d="M0 0 C1.98 0 3.96 0 6 0 C6 0.66 6 1.32 6 2 C5.34 2 4.68 2 4 2 C3.96261719 2.66386719 3.92523438 3.32773438 3.88671875 4.01171875 C3.50164056 9.18384743 3.03829714 12.67626946 0 17 C-1.07528629 19.30627013 -2.03074741 21.64610086 -3 24 C-3.66 23.67 -4.32 23.34 -5 23 C-5 20.03 -5 17.06 -5 14 C-3.35 13.67 -1.7 13.34 0 13 C0 8.71 0 4.42 0 0 Z " fill="#4A4A4A" transform="translate(266,121)"/>
<path d="M0 0 C0.33 0.66 0.66 1.32 1 2 C-4.05029385 12.17122119 -12.03780121 21.10600093 -21 28 C-20.43185764 24.39387421 -19.19310312 22.9617129 -16.5 20.5625 C-11.85374475 16.12553552 -8.50983097 11.18386871 -4.98046875 5.85546875 C-3.4279045 3.61695896 -2.01126169 1.80823212 0 0 Z " fill="#170F12" transform="translate(336,296)"/>
<path d="M0 0 C3 1 3 1 4.3515625 3.21484375 C4.98191406 4.56255859 4.98191406 4.56255859 5.625 5.9375 C6.05039063 6.83339844 6.47578125 7.72929687 6.9140625 8.65234375 C7.27242187 9.42707031 7.63078125 10.20179688 8 11 C8.33 11.66 8.66 12.32 9 13 C7.68 13.33 6.36 13.66 5 14 C4.34 12.68 3.68 11.36 3 10 C2.71125 11.134375 2.4225 12.26875 2.125 13.4375 C1.75375 14.613125 1.3825 15.78875 1 17 C0.34 17.33 -0.32 17.66 -1 18 C-0.505 9.09 -0.505 9.09 0 0 Z " fill="#202020" transform="translate(207,129)"/>
<path d="M0 0 C0.64388672 0.86818359 0.64388672 0.86818359 1.30078125 1.75390625 C7.59050847 10.0679135 13.69840664 16.16706183 24 19 C24 19.66 24 20.32 24 21 C15.6148343 20.35498725 9.047503 15.696166 3.4453125 9.703125 C1.63490843 7.56978399 0.13954837 5.56398384 -1 3 C-0.67 2.01 -0.34 1.02 0 0 Z " fill="#1C1E12" transform="translate(222,262)"/>
<path d="M0 0 C4.00248815 4.00248815 3.9401253 11.23369642 4.125 16.6875 C4.08375 17.450625 4.0425 18.21375 4 19 C4.66 19 5.32 19 6 19 C6 19.66 6 20.32 6 21 C4.02 21.33 2.04 21.66 0 22 C0 14.74 0 7.48 0 0 Z " fill="#0F0F0F" transform="translate(288,357)"/>
<path d="M0 0 C2.43268553 1.67471194 4.61164631 3.59718918 6.8125 5.5625 C7.7087207 6.34270508 7.7087207 6.34270508 8.62304688 7.13867188 C10.08942387 8.41735262 11.54573706 9.70755841 13 11 C12.34 11.66 11.68 12.32 11 13 C10.09636719 12.19433594 9.19273437 11.38867188 8.26171875 10.55859375 C7.07077976 9.51769432 5.8793478 8.47735871 4.6875 7.4375 C4.09259766 6.90447266 3.49769531 6.37144531 2.88476562 5.82226562 C1.32180963 4.46886798 -0.33487746 3.2255136 -2 2 C-2.99 2.33 -3.98 2.66 -5 3 C-5.73323796 5.01508358 -5.73323796 5.01508358 -6 7 C-6.66 6.67 -7.32 6.34 -8 6 C-7.625 3.0625 -7.625 3.0625 -7 0 C-4.15869421 -1.4206529 -3.02624291 -0.98342343 0 0 Z " fill="#122021" transform="translate(197,310)"/>
<path d="M0 0 C3.18980891 3.18980891 3.56702601 7.32544291 4.625 11.625 C4.85445313 12.50285156 5.08390625 13.38070312 5.3203125 14.28515625 C6.66617204 19.67660548 7.24598364 24.44594825 7 30 C4 28 4 28 3.33984375 25.27734375 C3.20707031 24.17519531 3.07429688 23.07304687 2.9375 21.9375 C2.40940156 17.91685139 1.83647046 14.00251182 0.875 10.0625 C0.06909078 6.64997813 -0.18061343 3.52196188 0 0 Z " fill="#273636" transform="translate(342,215)"/>
<path d="M0 0 C0.33 0 0.66 0 1 0 C4.04347826 17.82608696 4.04347826 17.82608696 2 26 C1.01 25.67 0.02 25.34 -1 25 C-0.67 21.7 -0.34 18.4 0 15 C-2.97 15 -5.94 15 -9 15 C-9 14.67 -9 14.34 -9 14 C-4.545 13.505 -4.545 13.505 0 13 C0 8.71 0 4.42 0 0 Z " fill="#25141B" transform="translate(347,239)"/>
<path d="M0 0 C-0.33 3.96 -0.66 7.92 -1 12 C-2.32 12.33 -3.64 12.66 -5 13 C-6 12 -6 12 -6.25 8.1875 C-6.21407129 5.32860121 -6.04706546 4.08964849 -4.6875 1.5 C-3 0 -3 0 0 0 Z " fill="#E7E7E7" transform="translate(295,138)"/>
<path d="M0 0 C1.65 0.33 3.3 0.66 5 1 C5.36476427 7.32258065 5.36476427 7.32258065 3.6875 10.4375 C2 12 2 12 -1 12 C-1.02712066 10.56260487 -1.04645067 9.12506137 -1.0625 7.6875 C-1.07410156 6.88699219 -1.08570313 6.08648437 -1.09765625 5.26171875 C-1 3 -1 3 0 0 Z " fill="#EBEBEB" transform="translate(199,350)"/>
<path d="M0 0 C6.50666545 0.33655166 9.37869575 1.37869575 14 6 C15.4783226 8.95664519 15.06032783 11.74229737 15 15 C14.01 15.495 14.01 15.495 13 16 C12.773125 14.7625 12.54625 13.525 12.3125 12.25 C11.52667894 9.16128666 11.04152329 8.04508243 8.8125 5.625 C5.5296404 3.72823668 2.68188541 2.86632598 -1 2 C-0.67 1.34 -0.34 0.68 0 0 Z " fill="#F2F2F2" transform="translate(250,236)"/>
<path d="M0 0 C0.66 0 1.32 0 2 0 C3.85376666 2.72612745 3.99513447 4.13623489 3.875 7.5 C2.91245658 11.35017368 2.2720056 12.7891854 -1 15 C-4.25 15.25 -4.25 15.25 -7 15 C-6.195625 14.38125 -5.39125 13.7625 -4.5625 13.125 C-1.13962953 10.28652205 -0.86432767 8.64327669 -0.4375 4.375 C-0.35371094 3.55773437 -0.26992187 2.74046875 -0.18359375 1.8984375 C-0.12300781 1.27195312 -0.06242188 0.64546875 0 0 Z " fill="#0E0E0E" transform="translate(204,349)"/>
<path d="M0 0 C-0.928125 0.680625 -0.928125 0.680625 -1.875 1.375 C-4.95957005 5.18535123 -5.30873376 9.23390116 -6 14 C-6.99 14 -7.98 14 -9 14 C-10.56935594 10.86128812 -10.35201103 8.46144178 -10 5 C-7.0256495 1.00587219 -5.05072617 -0.72153231 0 0 Z " fill="#1D1D1D" transform="translate(295,136)"/>
<path d="M0 0 C0 0.66 0 1.32 0 2 C-9.04028922 2.1723784 -17.98865693 1.6331684 -27 1 C-27 0.67 -27 0.34 -27 0 C-7.53488372 -2.51162791 -7.53488372 -2.51162791 0 0 Z " fill="#101D23" transform="translate(183,242)"/>
<path d="M0 0 C0.66 1.32 1.32 2.64 2 4 C-1.52307523 9.62192856 -5.01789437 14.58404274 -10 19 C-10.66 19 -11.32 19 -12 19 C-12.33 19.66 -12.66 20.32 -13 21 C-13.33 20.01 -13.66 19.02 -14 18 C-13.32453125 17.45472656 -12.6490625 16.90945313 -11.953125 16.34765625 C-6.13422908 11.42850291 -2.31881988 7.3198568 0 0 Z " fill="#25130C" transform="translate(281,259)"/>
<path d="M0 0 C0.99 0 1.98 0 3 0 C6.96 7.59 10.92 15.18 15 23 C14.01 23 13.02 23 12 23 C11.46890625 21.92621094 10.9378125 20.85242188 10.390625 19.74609375 C9.67719255 18.30984158 8.96364471 16.87364672 8.25 15.4375 C7.90195312 14.73302734 7.55390625 14.02855469 7.1953125 13.30273438 C4.94162392 8.77448974 2.54907588 4.3690242 0 0 Z " fill="#0D070A" transform="translate(265,278)"/>
<path d="M0 0 C0.99 0.33 1.98 0.66 3 1 C3 1.66 3 2.32 3 3 C2.21625 3.2475 1.4325 3.495 0.625 3.75 C-2.44822509 5.21344052 -2.82042517 5.89815507 -4 9 C-4.23979762 11.36222232 -4.23979762 11.36222232 -4.125 13.75 C-4.10695312 14.54921875 -4.08890625 15.3484375 -4.0703125 16.171875 C-4.04710937 16.77515625 -4.02390625 17.3784375 -4 18 C-6 17 -6 17 -7 14 C-7.66611433 8.11599006 -7.66611433 8.11599006 -5.953125 5.24609375 C-4.16567453 3.06435273 -2.54217952 1.27108976 0 0 Z " fill="#1D1D1D" transform="translate(247,239)"/>
<path d="M0 0 C-0.639375 0.165 -1.27875 0.33 -1.9375 0.5 C-4.16119241 1.781786 -4.16119241 1.781786 -4.48828125 3.9140625 C-4.7275978 5.93575155 -4.86893028 7.96841939 -5 10 C-6.4606285 7.35261084 -7 6.10551666 -7 3 C-8.32 3.33 -9.64 3.66 -11 4 C-11 3.34 -11 2.68 -11 2 C-13.64 2 -16.28 2 -19 2 C-19 1.67 -19 1.34 -19 1 C-16.58440932 0.63645961 -14.16805703 0.28389449 -11.75 -0.0625 C-11.06808594 -0.16626953 -10.38617188 -0.27003906 -9.68359375 -0.37695312 C-6.2150075 -0.86524925 -3.33088887 -1.22762141 0 0 Z " fill="#271B11" transform="translate(266,280)"/>
<path d="M0 0 C0.66 0 1.32 0 2 0 C2.66 6.6 3.32 13.2 4 20 C3.34 20 2.68 20 2 20 C0.88176185 17.76352369 0.80603939 16.35108471 0.68359375 13.8671875 C0.62075195 12.65869141 0.62075195 12.65869141 0.55664062 11.42578125 C0.51732422 10.58402344 0.47800781 9.74226563 0.4375 8.875 C0.39431641 8.02550781 0.35113281 7.17601562 0.30664062 6.30078125 C0.20045764 4.20071777 0.09971503 2.10038052 0 0 Z " fill="#0C161A" transform="translate(257,315)"/>
<path d="M0 0 C8.49253593 2.38852573 14.22331721 10.03400426 19 17 C16 17 16 17 14.4921875 15.53125 C13.69167969 14.52578125 13.69167969 14.52578125 12.875 13.5 C9.48053476 9.42228052 5.75392709 6.00543696 1.72265625 2.56640625 C1.15417969 2.04949219 0.58570313 1.53257812 0 1 C0 0.67 0 0.34 0 0 Z " fill="#0D1616" transform="translate(308,172)"/>
<path d="M0 0 C0.33 0 0.66 0 1 0 C1.4226988 6.12913259 1.00963916 9.04691633 -3 14 C-3.66 14.66 -4.32 15.32 -5 16 C-5.99 15.67 -6.98 15.34 -8 15 C-7.401875 14.278125 -6.80375 13.55625 -6.1875 12.8125 C-2.94205253 8.63978182 -0.75553544 5.2887481 0 0 Z " fill="#EAEAEA" transform="translate(265,246)"/>
<path d="M0 0 C0.06058594 0.85722656 0.12117187 1.71445313 0.18359375 2.59765625 C0.61143536 8.43604873 1.059163 14.22057272 2 20 C0 19 0 19 -1.0625 16.6875 C-2.37976661 11.50625132 -2.67262168 6.32420529 -3 1 C-1 0 -1 0 0 0 Z " fill="#01100F" transform="translate(220,243)"/>
<path d="M0 0 C2.29946417 3.44919626 2.80769035 6.1381022 3.625 10.1875 C3.88539063 11.45980469 4.14578125 12.73210937 4.4140625 14.04296875 C4.60742188 15.01878906 4.80078125 15.99460938 5 17 C4.01 17 3.02 17 2 17 C1.47097431 14.54316882 0.95149191 12.08497874 0.4375 9.625 C0.28603516 8.92632812 0.13457031 8.22765625 -0.02148438 7.5078125 C-1.11328125 2.2265625 -1.11328125 2.2265625 0 0 Z " fill="#280916" transform="translate(230,166)"/>
<path d="M0 0 C0.66 0 1.32 0 2 0 C2 0.66 2 1.32 2 2 C2.99 1.67 3.98 1.34 5 1 C5.04254356 2.99954746 5.04080783 5.00041636 5 7 C4 8 4 8 1.4375 8.0625 C0.633125 8.041875 -0.17125 8.02125 -1 8 C-0.67 5.36 -0.34 2.72 0 0 Z " fill="#131313" transform="translate(203,145)"/>
<path d="M0 0 C-0.33 0.99 -0.66 1.98 -1 3 C-3.94140625 4.16796875 -3.94140625 4.16796875 -7.5625 5.1875 C-9.35880859 5.70376953 -9.35880859 5.70376953 -11.19140625 6.23046875 C-12.58166016 6.61138672 -12.58166016 6.61138672 -14 7 C-13.67 5.35 -13.34 3.7 -13 2 C-10.02148438 1.65820312 -10.02148438 1.65820312 -7.04296875 1.31640625 C-4.58481052 0.93569723 -2.50169498 0 0 0 Z " fill="#131C1E" transform="translate(287,339)"/>
<path d="M0 0 C2.97 0.33 5.94 0.66 9 1 C11.28571429 9.42857143 11.28571429 9.42857143 11 14 C10.34 14 9.68 14 9 14 C8.03929566 11.11788698 7.89418117 9.30149956 7.9375 6.3125 C7.94652344 5.50425781 7.95554688 4.69601562 7.96484375 3.86328125 C7.98224609 2.94095703 7.98224609 2.94095703 8 2 C5.36 2 2.72 2 0 2 C0 1.34 0 0.68 0 0 Z " fill="#090C0F" transform="translate(246,281)"/>
<path d="M0 0 C0.99 0.33 1.98 0.66 3 1 C2.53980469 1.39832031 2.07960937 1.79664063 1.60546875 2.20703125 C-0.2674322 4.29866516 -0.87389302 6.01421992 -1.6875 8.6875 C-1.93886719 9.49574219 -2.19023437 10.30398438 -2.44921875 11.13671875 C-2.72185547 12.05904297 -2.72185547 12.05904297 -3 13 C-3.66 13 -4.32 13 -5 13 C-5.33 13.66 -5.66 14.32 -6 15 C-5.61471495 8.83543922 -3.52913975 5.01372252 0 0 Z " fill="#282828" transform="translate(230,352)"/>
<path d="M0 0 C0.99 0.33 1.98 0.66 3 1 C1.35 4.63 -0.3 8.26 -2 12 C-2.99 12 -3.98 12 -5 12 C-3.41037341 7.96479403 -1.71767682 3.98188718 0 0 Z " fill="#211218" transform="translate(340,285)"/>
<path d="M0 0 C0.66 0 1.32 0 2 0 C3.98 4.29 5.96 8.58 8 13 C7.01 13 6.02 13 5 13 C4.15930585 11.39967863 3.32768495 9.79458829 2.5 8.1875 C1.80390625 6.84751953 1.80390625 6.84751953 1.09375 5.48046875 C0 3 0 3 0 0 Z " fill="#160F17" transform="translate(230,204)"/>
<path d="M0 0 C4.09240593 5.0667883 6.47367627 9.3685322 6 16 C2.31948468 12.31948468 0.17126789 7.09803164 -0.25 1.9375 C-0.1675 1.298125 -0.085 0.65875 0 0 Z " fill="#1D2727" transform="translate(336,202)"/>
<path d="M0 0 C1.98 0 3.96 0 6 0 C6 2.31 6 4.62 6 7 C5.67 5.68 5.34 4.36 5 3 C4.01 3 3.02 3 2 3 C2 4.65 2 6.3 2 8 C1.34 8 0.68 8 0 8 C0 5.36 0 2.72 0 0 Z " fill="#434343" transform="translate(274,121)"/>
<path d="M0 0 C0.33 0 0.66 0 1 0 C1 3.3 1 6.6 1 10 C-0.32 10 -1.64 10 -3 10 C-2.25 3.375 -2.25 3.375 0 0 Z " fill="#F0F0F0" transform="translate(230,355)"/>
<path d="M0 0 C0 3 0 3 -1.75 5.04296875 C-2.4925 5.75066406 -3.235 6.45835937 -4 7.1875 C-4.7425 7.90292969 -5.485 8.61835938 -6.25 9.35546875 C-6.8275 9.89816406 -7.405 10.44085938 -8 11 C-8.33 10.01 -8.66 9.02 -9 8 C-7.87811441 6.85111717 -6.75238316 5.70598863 -5.625 4.5625 C-4.99851562 3.92441406 -4.37203125 3.28632813 -3.7265625 2.62890625 C-2 1 -2 1 0 0 Z " fill="#070103" transform="translate(324,313)"/>
<path d="M0 0 C0.99 0.33 1.98 0.66 3 1 C2.319375 2.051875 2.319375 2.051875 1.625 3.125 C-0.01686943 6.02984591 -1.03677099 8.8139348 -2 12 C-2.66 11.67 -3.32 11.34 -4 11 C-3.48964169 6.6109185 -2.47785723 3.66291938 0 0 Z " fill="#26120C" transform="translate(223,232)"/>
<path d="M0 0 C0.93045933 2.55144824 1.08564091 3.74006478 0.22265625 6.359375 C-0.16019531 7.14828125 -0.54304688 7.9371875 -0.9375 8.75 C-1.31777344 9.54921875 -1.69804687 10.3484375 -2.08984375 11.171875 C-2.39019531 11.77515625 -2.69054687 12.3784375 -3 13 C-3.99 12.67 -4.98 12.34 -6 12 C-4 8 -2 4 0 0 Z " fill="#2B2B2B" transform="translate(267,134)"/>
<path d="M0 0 C1.32 0 2.64 0 4 0 C3.25 6.75 3.25 6.75 1 9 C0 8 0 8 -0.09765625 6.15234375 C-0.06510417 4.1015625 -0.03255208 2.05078125 0 0 Z " fill="#FBFBFB" transform="translate(261,136)"/>
<path d="M0 0 C0.625 1.875 0.625 1.875 1 4 C-1 6 -1 6 -4 6.25 C-7 6 -7 6 -9 4 C-9 3.01 -9 2.02 -9 1 C-8.34 1 -7.68 1 -7 1 C-6.67 1.66 -6.34 2.32 -6 3 C-4.02 3 -2.04 3 0 3 C0 2.01 0 1.02 0 0 Z " fill="#082324" transform="translate(323,197)"/>
<path d="M0 0 C1.9375 0.8125 1.9375 0.8125 4 2 C4.33 2.99 4.66 3.98 5 5 C5.66 5 6.32 5 7 5 C8.625 7.5 8.625 7.5 10 10 C7 10 7 10 5.17578125 8.3203125 C4.56089844 7.59585938 3.94601562 6.87140625 3.3125 6.125 C2.68988281 5.40570313 2.06726563 4.68640625 1.42578125 3.9453125 C0 2 0 2 0 0 Z " fill="#13191A" transform="translate(305,188)"/>
<path d="M0 0 C0.66 0.33 1.32 0.66 2 1 C2 3.97 2 6.94 2 10 C0.02 10 -1.96 10 -4 10 C-4 9.34 -4 8.68 -4 8 C-3.34 7.67 -2.68 7.34 -2 7 C-1.26924352 4.6859378 -0.59861742 2.35171131 0 0 Z " fill="#353535" transform="translate(242,139)"/>
<path d="M0 0 C0.33 0 0.66 0 1 0 C1 1.98 1 3.96 1 6 C1.66 6 2.32 6 3 6 C3 6.66 3 7.32 3 8 C1.02 8.33 -0.96 8.66 -3 9 C-2.67 7.35 -2.34 5.7 -2 4 C-1.34 4 -0.68 4 0 4 C0 2.68 0 1.36 0 0 Z " fill="#414141" transform="translate(291,370)"/>
<path d="M0 0 C0.91007813 0.00902344 1.82015625 0.01804688 2.7578125 0.02734375 C3.45648438 0.03894531 4.15515625 0.05054688 4.875 0.0625 C4.875 0.7225 4.875 1.3825 4.875 2.0625 C-1.065 2.5575 -1.065 2.5575 -7.125 3.0625 C-7.125 2.4025 -7.125 1.7425 -7.125 1.0625 C-4.60024538 -0.19987731 -2.81299534 -0.03606404 0 0 Z " fill="#17140C" transform="translate(251.125,233.9375)"/>
<path d="M0 0 C0 2.31 0 4.62 0 7 C-0.99 7.33 -1.98 7.66 -3 8 C-3 6.02 -3 4.04 -3 2 C-3.99 1.67 -4.98 1.34 -6 1 C-4 0 -4 0 0 0 Z " fill="#252525" transform="translate(203,124)"/>
<path d="M0 0 C0.33 0 0.66 0 1 0 C1 1.98 1 3.96 1 6 C1.66 6 2.32 6 3 6 C3 6.66 3 7.32 3 8 C1.02 8 -0.96 8 -3 8 C-1.125 2.25 -1.125 2.25 0 0 Z " fill="#141414" transform="translate(223,372)"/>
<path d="M0 0 C0.33 0.66 0.66 1.32 1 2 C0.00390625 3.9453125 0.00390625 3.9453125 -1.4375 6.125 C-1.91058594 6.84945313 -2.38367188 7.57390625 -2.87109375 8.3203125 C-3.24363281 8.87460937 -3.61617188 9.42890625 -4 10 C-4.66 9.34 -5.32 8.68 -6 8 C-2.25 1.125 -2.25 1.125 0 0 Z " fill="#10090C" transform="translate(336,296)"/>
<path d="M0 0 C0 0.66 0 1.32 0 2 C-1.65 2 -3.3 2 -5 2 C-5 2.99 -5 3.98 -5 5 C-5.66 5 -6.32 5 -7 5 C-7 3.35 -7 1.7 -7 0 C-3.86650268 -1.04449911 -3.01031744 -0.93423645 0 0 Z " fill="#414141" transform="translate(189,128)"/>
<path d="M0 0 C2 2 2 2 2.3125 5.4375 C2 9 2 9 -1 12 C-0.67 8.04 -0.34 4.08 0 0 Z " fill="#C6C6C6" transform="translate(286,355)"/>
<path d="M0 0 C0 0.66 0 1.32 0 2 C-2.95664519 3.4783226 -5.74229737 3.06032783 -9 3 C-9 2.34 -9 1.68 -9 1 C-2.25 -1.125 -2.25 -1.125 0 0 Z " fill="#F0F0F0" transform="translate(258,261)"/>
<path d="M0 0 C3.63 0.66 7.26 1.32 11 2 C8 4 8 4 4.9375 3.6875 C2 3 2 3 0 2 C0 1.34 0 0.68 0 0 Z " fill="#2A2619" transform="translate(242,262)"/>
<path d="M0 0 C0.66 0 1.32 0 2 0 C6 5.29411765 6 5.29411765 6 9 C0.42857143 3.85714286 0.42857143 3.85714286 0 0 Z " fill="#1A160A" transform="translate(236,254)"/>
<path d="M0 0 C3 1 3 1 7 3 C3.7 3.66 0.4 4.32 -3 5 C-2.67 3.68 -2.34 2.36 -2 1 C-1.34 0.67 -0.68 0.34 0 0 Z " fill="#D9D9D9" transform="translate(247,236)"/>
<path d="M0 0 C0.33 0 0.66 0 1 0 C1.1953125 6.0546875 1.1953125 6.0546875 1 8 C0.34 8.66 -0.32 9.32 -1 10 C-1.66 10 -2.32 10 -3 10 C-2.21302675 6.58978257 -1.12880057 3.31114834 0 0 Z " fill="#C8C8C8" transform="translate(265,246)"/>
<path d="M0 0 C0.66 0 1.32 0 2 0 C1.125 5.75 1.125 5.75 0 8 C-0.66 8 -1.32 8 -2 8 C-1.125 2.25 -1.125 2.25 0 0 Z " fill="#0C0307" transform="translate(343,277)"/>
<path d="M0 0 C2.01136276 2.55991624 3.62845496 5.04590299 5 8 C4.01 8 3.02 8 2 8 C0.25 5.6875 0.25 5.6875 -1 3 C-0.67 2.01 -0.34 1.02 0 0 Z " fill="#171A11" transform="translate(222,262)"/>
<path d="M0 0 C0.99 0.33 1.98 0.66 3 1 C3.33 2.98 3.66 4.96 4 7 C3.01 7 2.02 7 1 7 C0.67 4.69 0.34 2.38 0 0 Z " fill="#1A1720" transform="translate(231,176)"/>
<path d="M0 0 C3.465 1.485 3.465 1.485 7 3 C5.1875 4.0625 5.1875 4.0625 3 5 C2.01 4.67 1.02 4.34 0 4 C0 2.68 0 1.36 0 0 Z " fill="#2F2F2F" transform="translate(187,152)"/>
<path d="M0 0 C1.98 0 3.96 0 6 0 C6 0.66 6 1.32 6 2 C5.34 2 4.68 2 4 2 C3.67 3.65 3.34 5.3 3 7 C2.67 7 2.34 7 2 7 C2 5.02 2 3.04 2 1 C1.34 0.67 0.68 0.34 0 0 Z " fill="#080808" transform="translate(266,121)"/>
<path d="M0 0 C0.33 0.99 0.66 1.98 1 3 C-0.98 4.32 -2.96 5.64 -5 7 C-3.75023244 3.34683329 -3.32901247 2.21934164 0 0 Z " fill="#110B0D" transform="translate(314,322)"/>
<path d="M0 0 C4 1 4 1 6 3 C5.67 4.32 5.34 5.64 5 7 C3.35 4.69 1.7 2.38 0 0 Z " fill="#071313" transform="translate(209,322)"/>
<path d="M0 0 C2.12508244 3.18762365 2.5020163 5.26512223 3 9 C2.01 8.67 1.02 8.34 0 8 C-1.125 2.25 -1.125 2.25 0 0 Z " fill="#2B0A18" transform="translate(241,208)"/>
</svg>
