<?xml version="1.0" standalone="no"?>
<!DOCTYPE svg PUBLIC "-//W3C//DTD SVG 20010904//EN"
 "http://www.w3.org/TR/2001/REC-SVG-20010904/DTD/svg10.dtd">
<svg version="1.0" xmlns="http://www.w3.org/2000/svg"
 width="500.000000pt" height="500.000000pt" viewBox="0 0 500.000000 500.000000"
 preserveAspectRatio="xMidYMid meet">
<metadata>
Created by potrace 1.14, written by Peter Selinger 2001-2017
</metadata>
<g transform="translate(0.000000,500.000000) scale(0.100000,-0.100000)"
fill="#000000" stroke="none">
<path d="M1930 4618 c-40 -15 -58 -41 -65 -93 -1 -11 -4 -22 -5 -25 -1 -3 -3
-16 -5 -30 -1 -14 -3 -27 -4 -30 -2 -3 -4 -14 -6 -25 -2 -11 -6 -36 -10 -55
-7 -39 -13 -79 -20 -125 -2 -16 -5 -30 -6 -30 -1 0 -3 -9 -4 -20 -2 -11 -6
-33 -9 -50 -7 -34 -42 -229 -57 -320 -5 -33 -12 -67 -15 -76 -7 -23 -44 -37
-79 -28 -51 12 -626 178 -695 200 -36 11 -74 22 -85 23 -63 9 -109 -48 -82
-100 14 -26 213 -315 234 -339 44 -51 53 -86 29 -111 -11 -10 -12 -22 -6 -45
8 -27 127 -204 172 -255 19 -21 18 -21 -126 -104 -79 -45 -148 -82 -152 -80
-4 1 -10 -2 -13 -8 -3 -5 -18 -15 -33 -23 -39 -20 -239 -132 -263 -146 -11 -6
-33 -18 -50 -26 -45 -21 -95 -66 -95 -86 0 -46 32 -79 85 -86 6 -1 17 -4 25
-7 8 -3 60 -13 115 -22 55 -9 177 -29 270 -46 204 -36 288 -50 335 -53 19 -2
36 -6 38 -10 5 -16 1 -27 -10 -27 -14 0 -271 -140 -279 -153 -3 -5 -10 -9 -15
-9 -23 -2 -44 -11 -44 -19 0 -5 -6 -9 -14 -9 -8 0 -16 -3 -18 -7 -1 -5 -30
-22 -63 -38 -174 -88 -203 -117 -179 -173 14 -35 59 -62 102 -62 16 0 32 -3
35 -6 4 -4 19 -8 34 -9 30 -3 81 -12 128 -22 17 -3 39 -7 50 -9 11 -1 36 -5
55 -9 19 -3 52 -7 72 -8 40 -2 71 -23 52 -35 -6 -4 -15 -23 -19 -42 -4 -19
-11 -41 -15 -50 -4 -8 -20 -56 -34 -107 -28 -99 -25 -132 13 -152 29 -16 52
-13 86 9 17 11 39 25 50 32 19 13 32 23 59 46 8 6 19 12 24 12 5 0 17 9 27 20
10 11 24 20 32 20 7 0 13 3 13 8 0 4 18 18 40 32 22 14 40 28 40 32 0 5 5 8
11 8 6 0 25 11 42 24 36 27 82 42 90 29 7 -11 -8 -88 -33 -168 -10 -33 -30
-105 -45 -160 -15 -55 -31 -105 -36 -111 -5 -6 -7 -13 -4 -16 3 -3 -1 -23 -9
-46 -8 -22 -12 -43 -9 -46 4 -3 2 -6 -3 -6 -5 0 -11 -9 -12 -20 -4 -42 -6 -50
-12 -50 -4 0 -7 -6 -8 -12 0 -7 -3 -24 -7 -38 -3 -14 -8 -32 -10 -40 -2 -8 -4
-15 -5 -15 -1 0 -3 -7 -5 -15 -2 -8 -15 -54 -30 -102 -25 -83 -26 -89 -10
-122 18 -37 51 -52 88 -40 23 7 94 51 115 71 7 7 26 20 42 30 17 9 30 21 30
26 0 4 4 6 9 2 5 -3 16 4 24 15 7 11 17 17 20 13 4 -3 7 -1 7 5 0 7 7 12 15
12 8 0 15 4 15 8 0 4 15 16 33 27 17 10 34 21 37 24 3 4 39 29 80 56 41 28 86
60 100 72 14 13 28 23 33 23 4 0 13 5 20 10 37 31 91 70 96 70 4 0 16 8 27 17
32 29 62 43 89 43 29 0 75 -27 75 -44 0 -6 11 -28 25 -49 14 -20 23 -37 20
-37 -4 0 2 -12 13 -27 10 -16 57 -98 102 -183 46 -85 87 -157 92 -158 4 -2 6
-8 2 -13 -3 -5 0 -9 5 -9 6 0 11 -6 11 -13 0 -7 11 -29 25 -50 14 -20 23 -37
19 -37 -4 0 0 -8 8 -17 8 -10 35 -54 58 -98 46 -83 62 -105 78 -105 6 0 12 -4
14 -9 5 -15 65 15 82 41 8 13 19 50 25 83 13 77 69 401 77 440 3 17 7 41 9 55
6 39 10 54 16 65 4 6 5 18 4 27 -2 9 1 34 6 55 10 37 18 86 22 128 2 11 6 26
10 33 5 6 6 16 3 20 -8 13 32 52 53 52 10 0 38 -7 61 -15 24 -8 57 -18 73 -21
17 -2 35 -8 41 -12 6 -3 16 -7 21 -7 14 -1 67 -15 85 -23 8 -3 20 -7 25 -8 6
-1 12 -3 15 -4 3 -1 12 -3 20 -5 8 -2 134 -38 279 -79 146 -42 277 -76 291
-76 37 0 70 38 70 81 0 34 -25 76 -100 169 -11 14 -20 29 -20 33 0 5 -6 14
-12 21 -7 7 -44 59 -83 115 -38 56 -100 145 -137 199 -37 53 -76 107 -87 119
-12 12 -21 27 -21 32 0 6 -14 25 -31 42 -31 31 -52 99 -31 99 5 0 9 7 8 15 0
9 13 23 29 33 17 9 32 19 35 22 5 5 33 21 150 82 41 22 91 49 110 60 19 12 69
39 110 61 41 22 80 43 86 48 6 5 37 23 70 40 220 117 218 116 238 151 16 26
16 30 0 63 -17 36 -55 54 -129 61 -39 4 -80 12 -80 14 0 2 -13 4 -30 5 -16 2
-30 4 -30 5 0 1 -11 4 -25 6 -49 7 -77 12 -131 23 -30 6 -148 27 -264 46 -115
20 -213 39 -218 44 -5 5 -7 27 -5 51 3 47 -6 40 213 155 39 21 77 44 86 51 8
8 20 14 25 14 14 0 42 35 45 57 4 29 -10 59 -34 71 -25 14 -225 52 -269 52
-34 0 -34 5 -4 103 13 42 22 77 20 77 -1 0 4 16 12 35 8 19 12 35 10 35 -3 0
2 16 10 35 8 19 11 35 8 35 -4 0 -2 6 4 13 6 7 14 26 17 42 8 39 13 59 15 63
2 1 3 5 5 10 1 4 5 19 9 35 18 63 -41 119 -102 96 -38 -14 -213 -135 -257
-176 -8 -7 -17 -13 -20 -13 -9 0 -226 -151 -281 -196 -30 -24 -43 -30 -47 -21
-6 16 3 67 12 67 4 0 7 8 8 18 1 17 10 55 13 60 3 2 4 6 14 47 4 17 10 37 13
45 4 8 5 21 4 28 -1 6 3 12 8 12 6 0 8 7 5 15 -4 8 -2 21 4 28 8 10 26 72 22
79 0 2 6 20 15 42 9 21 14 41 11 44 -3 3 -2 10 2 16 5 6 16 36 25 66 51 176
67 237 67 253 0 25 -45 67 -72 67 -13 0 -93 -50 -186 -115 -89 -63 -167 -115
-171 -115 -5 0 -11 -4 -13 -8 -3 -9 -185 -137 -235 -167 -18 -11 -33 -22 -33
-26 0 -3 -11 -11 -23 -16 -22 -10 -25 -8 -41 27 -9 21 -39 77 -66 125 -28 47
-50 88 -50 91 0 3 -11 15 -25 28 -22 20 -31 23 -61 16 -20 -5 -38 -11 -41 -14
-5 -5 -33 18 -33 28 0 3 -15 31 -34 63 -18 32 -44 78 -58 103 -145 268 -160
286 -208 268z"/>
</g>
</svg>
